<svg xmlns="http://www.w3.org/2000/svg" width="668.556" height="118.192" viewBox="0 0 668.556 118.192">
  <g id="Group_432" data-name="Group 432" transform="translate(-228.764 -650.216)">
    <path id="Path_482" data-name="Path 482" d="M20.672,0h11.7V-14.592c0-5.016-1.064-14.136-1.672-19.152h.3L34.96-20.368l6.08,16.34h6.992l6.08-16.34,4.1-13.376h.3c-.608,5.016-1.672,14.136-1.672,19.152V0H68.7V-49.4H54.72L47.576-29.184c-.912,2.736-1.672,5.776-2.584,8.664h-.3c-.912-2.888-1.672-5.928-2.584-8.664L34.656-49.4H20.672ZM96.216.912A25.6,25.6,0,0,0,110.048-3.5l-4.1-7.752a16.129,16.129,0,0,1-7.9,2.28c-4.256,0-7.6-1.52-8.816-6.08h21.66a27.177,27.177,0,0,0,.532-5.472c0-10.184-5.32-18.392-16.568-18.392-9.272,0-18.24,7.6-18.24,19.912C76.608-6.384,85.12.912,96.216.912ZM89.072-23.56c.76-3.8,3.192-5.472,6.08-5.472,3.952,0,5.168,2.584,5.168,5.472ZM133.456.912a25.183,25.183,0,0,0,8.968-1.52l-1.976-9.12a11.12,11.12,0,0,1-3.344.456c-2.432,0-4.56-1.368-4.56-5.548v-13h8.664V-38h-8.664V-49.4H121.752L120.232-38l-5.776.456v9.728h5.016v13.224C119.472-5.32,123.576.912,133.456.912ZM148.2,0h13.072V-21.128c1.824-4.712,5.168-6.384,7.9-6.384a15.685,15.685,0,0,1,3.952.456l2.432-11.1a11.3,11.3,0,0,0-4.712-.76c-3.724,0-7.98,2.28-10.792,7.448h-.3L158.84-38H148.2Zm31.768,0H193.04V-38H179.968ZM186.5-42.712c4.256,0,7.144-2.584,7.144-6.536s-2.888-6.536-7.144-6.536-7.144,2.584-7.144,6.536S182.248-42.712,186.5-42.712ZM219.032.912A19.114,19.114,0,0,0,231.648-3.5L226.632-11.7a9.863,9.863,0,0,1-6.08,2.128c-4.1,0-7.3-3.648-7.3-9.424s2.888-9.424,7.752-9.424a6.642,6.642,0,0,1,4.256,1.52l6.08-8.056a16.715,16.715,0,0,0-11.1-3.952c-10.792,0-20.368,7.3-20.368,19.912S208.24.912,219.032.912ZM245.328,0h15.808l14.9-49.4H262.656l-5.32,21.584c-1.292,5.244-2.28,10.336-3.648,15.656h-.3c-1.368-5.32-2.432-10.412-3.648-15.656L244.872-49.4H231.04ZM279.68,0h13.072V-38H279.68Zm6.536-42.712c4.256,0,7.144-2.584,7.144-6.536s-2.888-6.536-7.144-6.536-7.144,2.584-7.144,6.536S281.96-42.712,286.216-42.712ZM313.272.912c10.64,0,16.264-5.472,16.264-12.616,0-6.08-4.256-9.728-10.032-11.552-4.864-1.52-6.688-2.28-6.688-3.952,0-1.368,1.064-2.128,3.344-2.128a13.491,13.491,0,0,1,8.056,2.736l5.472-7.3A21.363,21.363,0,0,0,315.7-38.912c-8.968,0-15.048,4.864-15.048,12.312,0,5.776,4.408,9.424,9.728,11.4,4.028,1.52,6.992,2.28,6.992,4.256,0,1.52-1.064,2.28-3.8,2.28A15.516,15.516,0,0,1,304-12.16l-5.472,7.3A22.306,22.306,0,0,0,313.272.912ZM335.92,0h13.072V-38H335.92Zm6.536-42.712c4.256,0,7.144-2.584,7.144-6.536s-2.888-6.536-7.144-6.536-7.144,2.584-7.144,6.536S338.2-42.712,342.456-42.712ZM374.68.912c9.728,0,18.848-7.3,18.848-19.912s-9.12-19.912-18.848-19.912S355.832-31.616,355.832-19,364.952.912,374.68.912Zm0-10.488c-3.952,0-5.472-3.648-5.472-9.424s1.52-9.424,5.472-9.424,5.472,3.648,5.472,9.424S378.632-9.576,374.68-9.576ZM400.368,0H413.44V-24.928c1.976-1.824,3.344-2.888,5.776-2.888,2.584,0,3.8,1.216,3.8,6.08V0h13.072V-23.408c0-9.424-3.5-15.5-11.856-15.5-5.168,0-8.968,2.584-12.008,5.472h-.3L411.008-38h-10.64Z" transform="translate(384 706)" fill="#88898c"/>
    <path id="Path_481" data-name="Path 481" d="M11.424.5c5.8,0,9.408-3.486,9.408-7.854,0-4.074-2.478-6.006-5.67-7.35l-3.948-1.722c-2.142-.882-4.536-1.89-4.536-4.536,0-2.436,2.016-3.99,5.082-3.99a8.949,8.949,0,0,1,6.216,2.562l1.932-2.352a11.493,11.493,0,0,0-8.148-3.318c-5,0-8.652,3.108-8.652,7.308,0,4.074,2.982,6.006,5.544,7.1l3.99,1.764C15.2-10.752,17.22-9.87,17.22-7.056c0,2.646-2.142,4.452-5.754,4.452A10.95,10.95,0,0,1,3.738-5.922L1.764-3.612A12.936,12.936,0,0,0,11.424.5ZM25.872,0h3.486V-14.784c1.89-2.1,3.57-3.108,5.082-3.108,2.6,0,3.78,1.6,3.78,5.418V0h3.486V-14.784c1.89-2.1,3.528-3.108,5.124-3.108,2.562,0,3.78,1.6,3.78,5.418V0H54.1V-12.936c0-5.208-2.016-7.98-6.216-7.98-2.478,0-4.62,1.6-6.72,3.864-.84-2.394-2.52-3.864-5.67-3.864-2.436,0-4.536,1.512-6.342,3.444h-.126l-.294-2.94H25.872ZM65.394.5a10.557,10.557,0,0,0,6.72-2.94h.126L72.576,0h2.856V-12.558c0-5.04-2.142-8.358-7.1-8.358a14.8,14.8,0,0,0-8.022,2.646l1.344,2.352a11.376,11.376,0,0,1,6.09-2.1c3.318,0,4.158,2.478,4.2,5.04-8.736.966-12.516,3.15-12.516,7.686C59.43-1.6,61.992.5,65.394.5Zm.966-2.856c-1.974,0-3.528-.882-3.528-3.15,0-2.646,2.226-4.2,9.114-5v5.544C69.972-3.234,68.334-2.352,66.36-2.352ZM81.858,0h3.486V-13.1c1.386-3.444,3.444-4.662,5.166-4.662a5.955,5.955,0,0,1,1.848.252l.756-2.982a4.825,4.825,0,0,0-2.184-.42c-2.268,0-4.368,1.638-5.8,4.2h-.126l-.294-3.7H81.858ZM102.9.5a9.5,9.5,0,0,0,3.864-.882l-.714-2.478a5.531,5.531,0,0,1-2.352.5c-2.31,0-3.15-1.428-3.15-3.906V-17.6h5.544v-2.814h-5.544v-6.552h-2.9l-.42,6.552-3.192.21v2.6h3.024V-6.342C97.062-2.268,98.532.5,102.9.5ZM119.406,0h3.234V-15.2c0-2.436-.294-5.838-.5-8.232h.168l2.184,6.426,5.124,14.238h2.562L137.34-17.01l2.142-6.426h.168c-.21,2.394-.5,5.8-.5,8.232V0h3.318V-27.552h-4.41L132.846-12.81c-.672,1.932-1.176,3.7-1.806,5.754h-.168c-.588-2.058-1.176-3.822-1.848-5.754l-5.208-14.742h-4.41Zm38.178.5c5,0,9.492-3.906,9.492-10.668,0-6.846-4.494-10.752-9.492-10.752s-9.45,3.906-9.45,10.752C148.134-3.4,152.586.5,157.584.5Zm0-2.9c-3.486,0-5.838-3.108-5.838-7.77,0-4.7,2.352-7.854,5.838-7.854,3.528,0,5.88,3.15,5.88,7.854C163.464-5.5,161.112-2.394,157.584-2.394ZM172.41,0H175.9V-14.784c2.016-2.058,3.486-3.108,5.544-3.108,2.688,0,3.864,1.6,3.864,5.418V0h3.486V-12.936c0-5.208-1.932-7.98-6.258-7.98-2.814,0-4.914,1.512-6.846,3.444h-.126l-.294-2.94H172.41Zm22.974,0h3.486V-20.412h-3.486Zm1.764-24.612a2.171,2.171,0,0,0,2.31-2.268,2.194,2.194,0,0,0-2.31-2.268,2.194,2.194,0,0,0-2.31,2.268A2.171,2.171,0,0,0,197.148-24.612ZM212.184.5a9.5,9.5,0,0,0,3.864-.882l-.714-2.478a5.531,5.531,0,0,1-2.352.5c-2.31,0-3.15-1.428-3.15-3.906V-17.6h5.544v-2.814h-5.544v-6.552h-2.9l-.42,6.552-3.192.21v2.6h3.024V-6.342C206.346-2.268,207.816.5,212.184.5Zm15.162,0c5,0,9.492-3.906,9.492-10.668,0-6.846-4.494-10.752-9.492-10.752s-9.45,3.906-9.45,10.752C217.9-3.4,222.348.5,227.346.5Zm0-2.9c-3.486,0-5.838-3.108-5.838-7.77,0-4.7,2.352-7.854,5.838-7.854,3.528,0,5.88,3.15,5.88,7.854C233.226-5.5,230.874-2.394,227.346-2.394ZM242.172,0h3.486V-13.1c1.386-3.444,3.444-4.662,5.166-4.662a5.955,5.955,0,0,1,1.848.252l.756-2.982a4.825,4.825,0,0,0-2.184-.42c-2.268,0-4.368,1.638-5.8,4.2h-.126l-.294-3.7h-2.856Zm14.616,0h3.486V-20.412h-3.486Zm1.764-24.612a2.171,2.171,0,0,0,2.31-2.268,2.194,2.194,0,0,0-2.31-2.268,2.194,2.194,0,0,0-2.31,2.268A2.171,2.171,0,0,0,258.552-24.612ZM267.162,0h3.486V-14.784c2.016-2.058,3.486-3.108,5.544-3.108,2.688,0,3.864,1.6,3.864,5.418V0h3.486V-12.936c0-5.208-1.932-7.98-6.258-7.98-2.814,0-4.914,1.512-6.846,3.444h-.126l-.294-2.94h-2.856Zm29.862,9.408c6.342,0,10.332-3.276,10.332-7.1,0-3.36-2.394-4.872-7.14-4.872h-3.948c-2.73,0-3.57-.924-3.57-2.184A2.98,2.98,0,0,1,294-7.182a6.95,6.95,0,0,0,3.024.714c4.158,0,7.476-2.73,7.476-7.1a5.79,5.79,0,0,0-1.638-4.158h4.158v-2.688h-7.1a8.15,8.15,0,0,0-2.9-.5c-4.158,0-7.686,2.814-7.686,7.266a7.226,7.226,0,0,0,2.646,5.5v.168a4.781,4.781,0,0,0-2.226,3.78,3.767,3.767,0,0,0,1.806,3.318v.168c-1.848,1.26-2.982,2.9-2.982,4.62C288.582,7.434,292.026,9.408,297.024,9.408Zm0-18.228c-2.352,0-4.326-1.848-4.326-4.83s1.932-4.746,4.326-4.746,4.326,1.806,4.326,4.746C301.35-10.668,299.376-8.82,297.024-8.82Zm.5,15.792c-3.7,0-5.922-1.344-5.922-3.528A4.3,4.3,0,0,1,293.706,0a9.94,9.94,0,0,0,2.646.336h3.486c2.688,0,4.116.63,4.116,2.52C303.954,4.956,301.392,6.972,297.528,6.972ZM320.334,0h3.486V-17.6H328.1v-2.814H323.82V-23.6c0-2.6.924-3.99,2.856-3.99a7.658,7.658,0,0,1,2.268.42l.756-2.562a8.9,8.9,0,0,0-3.4-.672c-4.074,0-5.964,2.646-5.964,6.8v3.192l-2.772.21v2.6h2.772Zm19.194.5c5,0,9.492-3.906,9.492-10.668,0-6.846-4.494-10.752-9.492-10.752s-9.45,3.906-9.45,10.752C330.078-3.4,334.53.5,339.528.5Zm0-2.9c-3.486,0-5.838-3.108-5.838-7.77,0-4.7,2.352-7.854,5.838-7.854,3.528,0,5.88,3.15,5.88,7.854C345.408-5.5,343.056-2.394,339.528-2.394ZM354.354,0h3.486V-13.1c1.386-3.444,3.444-4.662,5.166-4.662a5.955,5.955,0,0,1,1.848.252l.756-2.982a4.825,4.825,0,0,0-2.184-.42c-2.268,0-4.368,1.638-5.8,4.2H357.5l-.294-3.7h-2.856Zm28.14-15.372c.966-3.066,1.848-6.09,2.688-9.282h.168c.882,3.192,1.764,6.216,2.772,9.282l1.3,4.158h-8.232ZM374.052,0h3.57l2.646-8.358h10.038L392.91,0h3.738l-9.282-27.552h-4.032Zm26.166,0H403.7V-14.784c1.89-2.1,3.57-3.108,5.082-3.108,2.6,0,3.78,1.6,3.78,5.418V0h3.486V-14.784c1.89-2.1,3.528-3.108,5.124-3.108,2.562,0,3.78,1.6,3.78,5.418V0h3.486V-12.936c0-5.208-2.016-7.98-6.216-7.98-2.478,0-4.62,1.6-6.72,3.864-.84-2.394-2.52-3.864-5.67-3.864-2.436,0-4.536,1.512-6.342,3.444h-.126l-.294-2.94h-2.856ZM439.74.5a10.558,10.558,0,0,0,6.72-2.94h.126L446.922,0h2.856V-12.558c0-5.04-2.142-8.358-7.1-8.358a14.8,14.8,0,0,0-8.022,2.646L436-15.918a11.376,11.376,0,0,1,6.09-2.1c3.318,0,4.158,2.478,4.2,5.04-8.736.966-12.516,3.15-12.516,7.686C433.776-1.6,436.338.5,439.74.5Zm.966-2.856c-1.974,0-3.528-.882-3.528-3.15,0-2.646,2.226-4.2,9.114-5v5.544C444.318-3.234,442.68-2.352,440.706-2.352ZM454.062,0h15.5V-2.856H458.472l10.71-15.708v-1.848H455.238V-17.6h9.534l-10.71,15.75Zm27.51.5c5,0,9.492-3.906,9.492-10.668,0-6.846-4.494-10.752-9.492-10.752s-9.45,3.906-9.45,10.752C472.122-3.4,476.574.5,481.572.5Zm0-2.9c-3.486,0-5.838-3.108-5.838-7.77,0-4.7,2.352-7.854,5.838-7.854,3.528,0,5.88,3.15,5.88,7.854C487.452-5.5,485.1-2.394,481.572-2.394ZM496.4,0h3.486V-14.784c2.016-2.058,3.486-3.108,5.544-3.108,2.688,0,3.864,1.6,3.864,5.418V0h3.486V-12.936c0-5.208-1.932-7.98-6.258-7.98-2.814,0-4.914,1.512-6.846,3.444h-.126l-.294-2.94H496.4Zm42.126.5a10.655,10.655,0,0,0,8.442-3.99l-1.932-2.1A8.191,8.191,0,0,1,538.65-2.6c-5.208,0-8.484-4.326-8.484-11.256,0-6.846,3.444-11.088,8.61-11.088A7.57,7.57,0,0,1,544.4-22.47l1.932-2.184a10.221,10.221,0,0,0-7.6-3.4c-7.014,0-12.222,5.418-12.222,14.28C526.512-4.788,531.636.5,538.524.5Zm21.168,0c5,0,9.492-3.906,9.492-10.668,0-6.846-4.494-10.752-9.492-10.752s-9.45,3.906-9.45,10.752C550.242-3.4,554.694.5,559.692.5Zm0-2.9c-3.486,0-5.838-3.108-5.838-7.77,0-4.7,2.352-7.854,5.838-7.854,3.528,0,5.88,3.15,5.88,7.854C565.572-5.5,563.22-2.394,559.692-2.394ZM574.518,0H578V-14.784c2.016-2.058,3.486-3.108,5.544-3.108,2.688,0,3.864,1.6,3.864,5.418V0H590.9V-12.936c0-5.208-1.932-7.98-6.258-7.98-2.814,0-4.914,1.512-6.846,3.444h-.126l-.294-2.94h-2.856Zm22.974,0h3.486V-14.784c2.016-2.058,3.486-3.108,5.544-3.108,2.688,0,3.864,1.6,3.864,5.418V0h3.486V-12.936c0-5.208-1.932-7.98-6.258-7.98-2.814,0-4.914,1.512-6.846,3.444h-.126l-.294-2.94h-2.856ZM628.7.5a11.27,11.27,0,0,0,6.762-2.1l-1.218-2.226a8.993,8.993,0,0,1-5.124,1.512c-3.864,0-6.426-2.772-6.72-6.972h13.734a10.747,10.747,0,0,0,.168-2.058c0-5.88-2.982-9.576-8.19-9.576-4.662,0-9.156,4.074-9.156,10.71C618.954-3.444,623.238.5,628.7.5ZM622.4-11.97c.42-3.906,2.94-6.174,5.8-6.174,3.108,0,5,2.142,5,6.174ZM649.362.5a9.753,9.753,0,0,0,6.594-2.6l-1.512-2.226a7.26,7.26,0,0,1-4.788,1.932c-3.738,0-6.258-3.108-6.258-7.77,0-4.7,2.688-7.854,6.384-7.854a5.784,5.784,0,0,1,4.074,1.68l1.722-2.184a8.3,8.3,0,0,0-5.964-2.394c-5.25,0-9.828,3.906-9.828,10.752C639.786-3.4,643.944.5,649.362.5Zm17.094,0a9.5,9.5,0,0,0,3.864-.882l-.714-2.478a5.532,5.532,0,0,1-2.352.5c-2.31,0-3.15-1.428-3.15-3.906V-17.6h5.544v-2.814H664.1v-6.552h-2.9l-.42,6.552-3.192.21v2.6h3.024V-6.342C660.618-2.268,662.088.5,666.456.5Z" transform="translate(227 759)" fill="#88898c"/>
    <path id="Path_480" data-name="Path 480" d="M26.9.912a20.891,20.891,0,0,0,16.264-7.3l-6.84-7.752a11.982,11.982,0,0,1-8.968,3.8c-6.384,0-10.64-5.168-10.64-14.44,0-8.968,5.016-14.288,10.792-14.288a11.607,11.607,0,0,1,8.208,3.192l6.84-7.9a21.19,21.19,0,0,0-15.352-6.536c-12.464,0-23.864,9.424-23.864,25.992C3.344-7.448,14.288.912,26.9.912ZM50.008,0H65.36C79.648,0,89.984-7.448,89.984-24.928S79.648-49.4,64.6-49.4H50.008ZM63.08-10.488V-38.912h.76c7.144,0,12.768,2.432,12.768,13.984s-5.624,14.44-12.768,14.44ZM102.6,0h16.264l3.648-19.608c.76-3.8,1.292-7.9,1.824-11.552h.3c.456,3.648,1.064,7.752,1.824,11.552L130.264,0h16.568l8.36-49.4H142.728L139.84-27.816c-.532,5.016-1.14,10.26-1.672,15.5h-.3c-.912-5.244-1.824-10.564-2.736-15.5L130.568-49.4H119.624L114.76-27.816c-.912,5.092-1.824,10.336-2.736,15.5h-.3c-.532-5.168-1.14-10.336-1.672-15.5L107.464-49.4H94.088Z" transform="translate(227 706)" fill="#c00"/>
  </g>
</svg>
